<?xml version="1.0" standalone="no"?>
<!DOCTYPE svg PUBLIC "-//W3C//DTD SVG 20010904//EN"
 "http://www.w3.org/TR/2001/REC-SVG-20010904/DTD/svg10.dtd">
<svg version="1.0" xmlns="http://www.w3.org/2000/svg"
 width="219.000000pt" height="230.000000pt" viewBox="0 0 219.000000 230.000000"
 preserveAspectRatio="xMidYMid meet">
<metadata>
Created by potrace 1.16, written by Peter Selinger 2001-2019
</metadata>
<g transform="translate(0.000000,230.000000) scale(0.100000,-0.100000)"
fill="#000000" stroke="none">
<path d="M0 1150 l0 -1150 1095 0 1095 0 0 1150 0 1150 -1095 0 -1095 0 0
-1150z m1140 933 c7 -16 12 -35 11 -45 -1 -9 4 -20 10 -24 8 -5 11 -2 7 7 -3
8 -1 23 4 34 8 18 8 18 4 -2 -2 -13 0 -23 4 -23 5 0 8 -9 7 -20 -1 -12 -7 -18
-14 -16 -18 7 -16 -8 5 -31 9 -10 13 -13 9 -6 -5 6 -5 18 0 25 4 7 8 22 8 33
1 27 22 62 31 52 4 -4 2 -13 -4 -19 -18 -18 -15 -66 6 -77 10 -6 12 -11 4 -11
-8 0 -10 -8 -6 -24 3 -15 -2 -39 -15 -64 -12 -23 -21 -50 -21 -61 0 -11 -5
-23 -10 -26 -7 -4 -9 2 -5 17 4 16 1 29 -10 38 -39 32 -91 8 -66 -31 6 -11 9
-30 5 -41 -4 -15 -3 -18 7 -13 9 6 11 3 6 -8 -4 -11 -1 -17 9 -17 8 0 12 5 9
10 -3 6 -2 10 4 10 6 0 8 7 5 15 -4 8 -10 12 -15 9 -11 -6 -12 7 -3 31 6 14
10 10 20 -15 8 -18 14 -41 14 -51 0 -16 6 -18 33 -14 30 5 35 2 49 -27 17 -36
7 -78 -19 -78 -7 0 -13 -5 -13 -10 0 -17 -43 -29 -64 -18 -10 6 -16 6 -13 1 8
-13 -37 -11 -45 1 -5 7 -8 6 -8 -2 0 -9 -16 -12 -59 -11 -109 4 -154 59 -110
133 11 20 25 36 30 36 5 0 9 8 10 18 0 14 2 14 8 -3 5 -11 4 -21 0 -23 -5 -2
-9 -8 -9 -13 0 -4 6 -6 13 -3 14 5 37 59 37 88 0 9 5 14 10 11 6 -3 10 -20 10
-36 0 -18 -4 -28 -10 -24 -5 3 -10 1 -10 -4 0 -15 25 -14 38 2 6 7 9 24 6 38
-5 19 -3 21 5 9 6 -8 11 -32 11 -52 0 -27 4 -38 15 -38 21 0 12 100 -10 112
-8 5 -14 12 -11 16 6 9 -80 9 -90 0 -9 -10 -54 42 -54 62 0 59 47 139 68 118
8 -8 9 -4 5 10 -3 12 -8 20 -12 18 -3 -2 -13 3 -21 12 -13 14 -12 15 5 8 34
-13 39 -12 43 12 3 20 9 22 66 22 59 0 64 -2 76 -27z m145 -608 c262 -76 438
-276 438 -500 0 -188 -106 -346 -299 -446 -132 -69 -193 -83 -359 -83 -120 -1
-151 2 -215 22 -242 77 -394 224 -436 424 -42 203 74 413 292 525 94 48 168
71 266 81 94 9 237 -1 313 -23z m-860 -1076 c90 -10 138 -24 155 -45 10 -12 8
-14 -17 -14 -37 0 -73 -25 -73 -52 0 -15 -4 -18 -17 -12 -10 4 -51 14 -90 22
l-73 15 0 55 c0 48 2 53 18 47 9 -5 53 -12 97 -16z m1393 -41 l-3 -53 -67 -12
c-37 -7 -77 -17 -88 -23 -16 -8 -20 -8 -20 4 0 30 -35 58 -73 58 -31 0 -36 2
-26 14 7 8 7 14 1 14 -5 0 -17 -10 -25 -22 -12 -17 -16 -19 -16 -8 -1 9 13 24
30 34 19 11 29 14 24 6 -6 -10 -4 -12 11 -6 10 4 42 12 69 17 60 11 155 26
173 28 10 1 12 -13 10 -51z"/>
<path d="M933 1689 c3 -12 0 -19 -9 -19 -8 0 -14 -5 -14 -11 0 -5 4 -8 9 -5 5
3 12 -1 15 -10 3 -8 2 -12 -4 -9 -6 3 -10 1 -10 -4 0 -7 28 -12 70 -12 39 -1
76 -2 83 -3 6 -1 16 0 22 3 5 3 22 4 37 2 27 -2 38 12 18 24 -5 3 -10 16 -9
28 0 12 3 16 6 9 2 -6 9 -10 14 -6 5 3 9 -8 9 -24 0 -19 5 -29 15 -29 8 0 15
4 15 9 0 4 3 7 8 7 23 -4 32 4 32 26 0 18 -5 25 -19 25 -11 0 -23 5 -26 10 -3
6 -11 10 -16 10 -6 0 -7 -5 -3 -11 4 -7 -2 -6 -17 1 -17 10 -24 10 -27 1 -2
-6 -8 -8 -14 -5 -24 15 -66 13 -72 -2 -5 -14 -9 -14 -23 -3 -9 8 -34 14 -55
15 -34 1 -39 -2 -35 -17z"/>
<path d="M930 1466 c-140 -25 -291 -104 -370 -194 -23 -25 -57 -79 -77 -119
-63 -127 -56 -270 18 -398 38 -66 66 -96 142 -154 202 -153 518 -177 755 -57
85 43 191 139 231 209 68 119 79 262 30 379 -29 69 -108 169 -167 212 -36 26
-45 28 -53 16 -9 -12 -10 -12 -5 3 5 15 -6 24 -57 47 -132 60 -304 81 -447 56z
m246 -147 c132 -24 253 -111 303 -219 35 -76 36 -174 1 -244 -70 -140 -227
-226 -410 -226 -93 1 -144 12 -223 51 -181 88 -258 275 -178 430 12 22 17 38
11 34 -6 -4 -7 1 -3 11 5 13 3 16 -10 11 -9 -3 -17 -2 -17 3 0 6 9 10 20 10
11 0 20 -5 20 -12 0 -7 19 6 43 28 59 57 93 78 162 102 95 34 179 40 281 21z"/>
<path d="M945 1281 c-79 -23 -118 -44 -172 -94 -97 -89 -124 -211 -73 -326 29
-66 113 -139 197 -172 72 -28 221 -37 291 -19 177 48 291 181 280 328 -6 73
-30 123 -89 181 -108 107 -280 147 -434 102z m253 -53 c0 -19 -10 -44 -22 -58
-37 -42 -57 -78 -46 -85 18 -11 11 -25 -12 -25 -22 -1 -23 -1 -4 -15 19 -15
19 -15 -1 -15 -20 0 -21 -2 -10 -22 27 -50 43 -68 57 -68 9 0 21 -5 26 -10 7
-7 37 3 93 30 46 23 85 40 86 38 2 -2 -61 -40 -140 -86 -87 -50 -142 -88 -139
-95 10 -23 76 -59 87 -48 8 8 7 11 -1 11 -9 0 -7 8 5 25 23 31 31 31 39 0 4
-18 -1 -32 -24 -56 -18 -20 -28 -38 -24 -48 5 -13 3 -14 -10 -3 -17 13 -43 8
-70 -16 -16 -13 -20 -13 -35 0 -10 9 -30 19 -44 24 -15 5 -43 24 -64 42 -34
30 -36 36 -26 58 6 13 15 24 20 24 9 0 24 -33 26 -54 1 -18 34 -31 52 -20 23
14 29 41 23 96 l-5 48 -100 -45 c-110 -50 -127 -55 -75 -23 134 83 134 82 109
89 l-24 7 25 3 c14 1 32 2 40 1 8 0 23 4 34 10 17 9 18 11 3 20 -10 5 -17 20
-17 33 0 18 -6 25 -18 25 -29 0 -33 11 -12 30 20 17 20 18 -10 30 -16 7 -30
16 -30 21 0 5 -15 18 -32 29 -28 17 -33 25 -34 65 -2 42 -1 44 13 28 13 -17
14 -16 8 7 -6 23 -5 23 19 -7 35 -43 135 -97 143 -78 3 8 27 30 54 50 27 19
49 42 49 50 0 8 4 15 9 15 5 0 9 -15 9 -32z"/>
</g>
</svg>
